<svg width="60" height="60" viewBox="0 0 60 60" fill="none" xmlns="http://www.w3.org/2000/svg">
<path d="M30 1C46.0163 1 59 13.9837 59 30C59 46.0163 46.0163 59 30 59C13.9837 59 1 46.0163 1 30C1 13.9837 13.9837 1 30 1Z" fill="white"/>
<path d="M30 1C46.0163 1 59 13.9837 59 30C59 46.0163 46.0163 59 30 59C13.9837 59 1 46.0163 1 30C1 13.9837 13.9837 1 30 1Z" stroke="#006554" stroke-width="2"/>
<path d="M28.1875 20.25H32.8125M37.1076 15.625H23.8924C22.434 15.625 21.25 16.8676 21.25 18.4V40.6C21.25 42.1324 22.434 43.375 23.8924 43.375H37.1076C38.5675 43.375 39.75 42.1324 39.75 40.6V18.4C39.75 16.8676 38.5675 15.625 37.1076 15.625Z" stroke="#006554" stroke-width="2.3125" stroke-linecap="round" stroke-linejoin="round"/>
</svg>
