<svg width="30" height="23" viewBox="0 0 30 23" fill="none" xmlns="http://www.w3.org/2000/svg">
<path d="M5.41071 0C4.17462 0 2.98915 0.495656 2.11509 1.37793C1.24104 2.2602 0.75 3.45682 0.75 4.70455V6.27273H29.75V4.70455C29.75 3.45682 29.259 2.2602 28.3849 1.37793C27.5109 0.495656 26.3254 0 25.0893 0H5.41071ZM0.75 18.2955V8.36364H29.75V18.2955C29.75 19.5432 29.259 20.7398 28.3849 21.6221C27.5109 22.5043 26.3254 23 25.0893 23H5.41071C4.17462 23 2.98915 22.5043 2.11509 21.6221C1.24104 20.7398 0.75 19.5432 0.75 18.2955ZM20.4286 14.6364C20.1539 14.6364 19.8904 14.7465 19.6962 14.9426C19.502 15.1386 19.3929 15.4045 19.3929 15.6818C19.3929 15.9591 19.502 16.225 19.6962 16.4211C19.8904 16.6171 20.1539 16.7273 20.4286 16.7273H23.5357C23.8104 16.7273 24.0738 16.6171 24.2681 16.4211C24.4623 16.225 24.5714 15.9591 24.5714 15.6818C24.5714 15.4045 24.4623 15.1386 24.2681 14.9426C24.0738 14.7465 23.8104 14.6364 23.5357 14.6364H20.4286Z" fill="#F5ED31"/>
<path d="M5.41071 0C4.17462 0 2.98915 0.495656 2.11509 1.37793C1.24104 2.2602 0.75 3.45682 0.75 4.70455V6.27273H29.75V4.70455C29.75 3.45682 29.259 2.2602 28.3849 1.37793C27.5109 0.495656 26.3254 0 25.0893 0H5.41071ZM0.75 18.2955V8.36364H29.75V18.2955C29.75 19.5432 29.259 20.7398 28.3849 21.6221C27.5109 22.5043 26.3254 23 25.0893 23H5.41071C4.17462 23 2.98915 22.5043 2.11509 21.6221C1.24104 20.7398 0.75 19.5432 0.75 18.2955ZM20.4286 14.6364C20.1539 14.6364 19.8904 14.7465 19.6962 14.9426C19.502 15.1386 19.3929 15.4045 19.3929 15.6818C19.3929 15.9591 19.502 16.225 19.6962 16.4211C19.8904 16.6171 20.1539 16.7273 20.4286 16.7273H23.5357C23.8104 16.7273 24.0738 16.6171 24.2681 16.4211C24.4623 16.225 24.5714 15.9591 24.5714 15.6818C24.5714 15.4045 24.4623 15.1386 24.2681 14.9426C24.0738 14.7465 23.8104 14.6364 23.5357 14.6364H20.4286Z" fill="url(#paint0_linear_2255_17495)"/>
<defs>
<linearGradient id="paint0_linear_2255_17495" x1="12.7744" y1="-4.79619e-07" x2="12.9886" y2="26.6339" gradientUnits="userSpaceOnUse">
<stop stop-color="#F5ED31" stop-opacity="0"/>
<stop offset="0.5" stop-color="#4CE589"/>
<stop offset="1" stop-color="#031741"/>
</linearGradient>
</defs>
</svg>
