<svg width="26" height="28" viewBox="0 0 26 28" fill="none" xmlns="http://www.w3.org/2000/svg">
<path d="M9.22222 10.0694L2.20833 6.14583L13.25 0L24.2917 6.14583L17.2778 10.0694C16.7454 9.51389 16.1319 9.08565 15.4375 8.78472C14.7431 8.4838 14.0139 8.33333 13.25 8.33333C12.4861 8.33333 11.7569 8.4838 11.0625 8.78472C10.3681 9.08565 9.75463 9.51389 9.22222 10.0694ZM11.8611 27.0139L0.75 20.8333V8.50694L7.86806 12.5C7.79861 12.7315 7.75231 12.9574 7.72917 13.1778C7.70602 13.3981 7.69444 13.6352 7.69444 13.8889C7.69444 15.162 8.07639 16.2963 8.84028 17.2917C9.60417 18.287 10.6111 18.9468 11.8611 19.2708V27.0139ZM13.25 16.6667C12.4861 16.6667 11.8324 16.3949 11.2889 15.8514C10.7454 15.3079 10.4731 14.6537 10.4722 13.8889C10.4713 13.1241 10.7435 12.4704 11.2889 11.9278C11.8343 11.3852 12.488 11.113 13.25 11.1111C14.012 11.1093 14.6662 11.3815 15.2125 11.9278C15.7588 12.4741 16.0306 13.1278 16.0278 13.8889C16.025 14.65 15.7532 15.3042 15.2125 15.8514C14.6718 16.3986 14.0176 16.6704 13.25 16.6667ZM14.6389 27.0139V19.2708C15.8889 18.9468 16.8958 18.287 17.6597 17.2917C18.4236 16.2963 18.8056 15.162 18.8056 13.8889C18.8056 13.6343 18.794 13.3968 18.7708 13.1764C18.7477 12.956 18.7014 12.7306 18.6319 12.5L25.75 8.50694V20.8333L14.6389 27.0139Z" fill="#F5ED31"/>
<path d="M9.22222 10.0694L2.20833 6.14583L13.25 0L24.2917 6.14583L17.2778 10.0694C16.7454 9.51389 16.1319 9.08565 15.4375 8.78472C14.7431 8.4838 14.0139 8.33333 13.25 8.33333C12.4861 8.33333 11.7569 8.4838 11.0625 8.78472C10.3681 9.08565 9.75463 9.51389 9.22222 10.0694ZM11.8611 27.0139L0.75 20.8333V8.50694L7.86806 12.5C7.79861 12.7315 7.75231 12.9574 7.72917 13.1778C7.70602 13.3981 7.69444 13.6352 7.69444 13.8889C7.69444 15.162 8.07639 16.2963 8.84028 17.2917C9.60417 18.287 10.6111 18.9468 11.8611 19.2708V27.0139ZM13.25 16.6667C12.4861 16.6667 11.8324 16.3949 11.2889 15.8514C10.7454 15.3079 10.4731 14.6537 10.4722 13.8889C10.4713 13.1241 10.7435 12.4704 11.2889 11.9278C11.8343 11.3852 12.488 11.113 13.25 11.1111C14.012 11.1093 14.6662 11.3815 15.2125 11.9278C15.7588 12.4741 16.0306 13.1278 16.0278 13.8889C16.025 14.65 15.7532 15.3042 15.2125 15.8514C14.6718 16.3986 14.0176 16.6704 13.25 16.6667ZM14.6389 27.0139V19.2708C15.8889 18.9468 16.8958 18.287 17.6597 17.2917C18.4236 16.2963 18.8056 15.162 18.8056 13.8889C18.8056 13.6343 18.794 13.3968 18.7708 13.1764C18.7477 12.956 18.7014 12.7306 18.6319 12.5L25.75 8.50694V20.8333L14.6389 27.0139Z" fill="url(#paint0_linear_2255_17528)"/>
<defs>
<linearGradient id="paint0_linear_2255_17528" x1="11.1159" y1="-5.63321e-07" x2="11.4586" y2="31.2802" gradientUnits="userSpaceOnUse">
<stop stop-color="#F5ED31" stop-opacity="0"/>
<stop offset="0.5" stop-color="#4CE589"/>
<stop offset="1" stop-color="#031741"/>
</linearGradient>
</defs>
</svg>
