<svg width="60" height="60" viewBox="0 0 60 60" fill="none" xmlns="http://www.w3.org/2000/svg">
<rect x="1" y="1" width="58" height="58" rx="29" fill="white"/>
<rect x="1" y="1" width="58" height="58" rx="29" stroke="#006554" stroke-width="2"/>
<path d="M17.0197 22.8743C16.9059 23.1762 16.9149 23.5107 17.0449 23.8061C17.1748 24.1014 17.4153 24.334 17.7148 24.4541C18.0143 24.5741 18.3489 24.5721 18.6469 24.4483C18.9449 24.3245 19.1825 24.0888 19.3087 23.7919L17.0197 22.8743ZM41.6863 23.7919C41.7442 23.9455 41.8322 24.086 41.945 24.2051C42.0579 24.3242 42.1934 24.4197 42.3437 24.4858C42.4939 24.5519 42.6558 24.5873 42.8199 24.5901C42.984 24.5928 43.147 24.5627 43.2993 24.5017C43.4516 24.4406 43.5903 24.3498 43.707 24.2344C43.8238 24.1191 43.9164 23.9816 43.9794 23.8301C44.0423 23.6785 44.0744 23.5159 44.0737 23.3518C44.0731 23.1877 44.0396 23.0253 43.9754 22.8743L41.6863 23.7919ZM46.5309 25.4692V33.7178H48.9975V25.4668L46.5309 25.4692ZM39.6513 40.5998H38.3144V43.0664H39.6513V40.5998ZM22.6856 40.5998H21.3487V43.0664H22.6856V40.5998ZM14.4667 33.7178V25.4668H12V33.7178H14.4667ZM14.4371 25.5038C24.9356 22.5036 36.0644 22.5036 46.5629 25.5038L47.2388 23.1333C36.2985 20.0073 24.7015 20.0073 13.7612 23.1333L14.4371 25.5038ZM21.3487 40.5998C19.5234 40.5998 17.773 39.8747 16.4824 38.5841C15.1917 37.2935 14.4667 35.543 14.4667 33.7178H12C12 36.1972 12.9849 38.5751 14.7382 40.3283C16.4914 42.0815 18.8692 43.0664 21.3487 43.0664V40.5998ZM22.2169 40.8785C22.2635 40.7948 22.3314 40.725 22.4137 40.676C22.496 40.627 22.5898 40.6007 22.6856 40.5998V43.0664C23.0326 43.0671 23.3732 42.9739 23.6716 42.7967C23.9699 42.6195 24.2172 42.365 24.3827 42.06L22.2169 40.8785ZM24.3827 42.06C27.0245 37.218 33.9755 37.218 36.6198 42.06L38.7831 40.8785C35.2064 34.3221 25.7911 34.3221 22.2169 40.8785L24.3827 42.06ZM38.3144 40.5998C38.5117 40.5998 38.6893 40.7058 38.7831 40.8785L36.6198 42.06C36.7853 42.365 37.0301 42.6195 37.3284 42.7967C37.6268 42.9739 37.9674 43.0671 38.3144 43.0664V40.5998ZM46.5333 33.7178C46.5333 35.543 45.8083 37.2935 44.5176 38.5841C43.227 39.8747 41.4766 40.5998 39.6513 40.5998V43.0664C42.1308 43.0664 44.5086 42.0815 46.2618 40.3283C48.0151 38.5751 49 36.1972 49 33.7178H46.5333ZM49 25.4668C48.9999 24.9393 48.8279 24.4262 48.5101 24.0051C48.1923 23.5841 47.7461 23.278 47.2388 23.1333L46.5629 25.5038C46.5553 25.5006 46.5486 25.4955 46.5434 25.4891C46.5382 25.4826 46.5348 25.4749 46.5333 25.4668H49ZM14.4667 25.4668C14.4652 25.4749 14.4618 25.4826 14.4566 25.4891C14.4514 25.4955 14.4447 25.5006 14.4371 25.5038L13.7612 23.1333C13.2544 23.2779 12.8084 23.5861 12.4906 24.0066C12.1729 24.4272 12.0007 24.9397 12 25.4668H14.4667ZM18.2456 19.8107L17.0197 22.8743L19.3087 23.7919L20.5371 20.7258L18.2456 19.8107ZM40.4629 20.7234L41.6888 23.7919L43.9754 22.8743L42.7519 19.8107L40.4629 20.7234ZM23.9732 18.3998H37.0268V15.9331H23.9732V18.3998ZM42.7519 19.8107C42.2944 18.6662 41.5045 17.6851 40.484 16.994C39.4635 16.3028 38.2593 15.9333 37.0268 15.9331V18.3998C37.7664 18.3996 38.4891 18.6212 39.1016 19.0358C39.7141 19.4504 40.1882 20.0391 40.4629 20.7258L42.7519 19.8107ZM20.5371 20.7234C20.8122 20.0371 21.2865 19.449 21.8989 19.0348C22.5114 18.6206 23.2339 18.3995 23.9732 18.3998V15.9331C22.7407 15.9333 21.5365 16.3028 20.516 16.994C19.4955 17.6851 18.7031 18.6662 18.2456 19.8107L20.5371 20.7234Z" fill="#006554"/>
</svg>
