<svg width="27" height="24" viewBox="0 0 27 24" fill="none" xmlns="http://www.w3.org/2000/svg">
<path d="M24.75 20.0005V21.3338C24.75 22.8005 23.55 24.0005 22.0833 24.0005H3.41667C1.93667 24.0005 0.75 22.8005 0.75 21.3338V2.66716C0.75 1.20049 1.93667 0.000488281 3.41667 0.000488281H22.0833C23.55 0.000488281 24.75 1.20049 24.75 2.66716V4.00049H12.75C11.27 4.00049 10.0833 5.20049 10.0833 6.66716V17.3338C10.0833 18.8005 11.27 20.0005 12.75 20.0005H24.75ZM12.75 17.3338H26.0833V6.66716H12.75V17.3338ZM18.0833 14.0005C16.9767 14.0005 16.0833 13.1072 16.0833 12.0005C16.0833 10.8938 16.9767 10.0005 18.0833 10.0005C19.19 10.0005 20.0833 10.8938 20.0833 12.0005C20.0833 13.1072 19.19 14.0005 18.0833 14.0005Z" fill="#F5ED31"/>
<path d="M24.75 20.0005V21.3338C24.75 22.8005 23.55 24.0005 22.0833 24.0005H3.41667C1.93667 24.0005 0.75 22.8005 0.75 21.3338V2.66716C0.75 1.20049 1.93667 0.000488281 3.41667 0.000488281H22.0833C23.55 0.000488281 24.75 1.20049 24.75 2.66716V4.00049H12.75C11.27 4.00049 10.0833 5.20049 10.0833 6.66716V17.3338C10.0833 18.8005 11.27 20.0005 12.75 20.0005H24.75ZM12.75 17.3338H26.0833V6.66716H12.75V17.3338ZM18.0833 14.0005C16.9767 14.0005 16.0833 13.1072 16.0833 12.0005C16.0833 10.8938 16.9767 10.0005 18.0833 10.0005C19.19 10.0005 20.0833 10.8938 20.0833 12.0005C20.0833 13.1072 19.19 14.0005 18.0833 14.0005Z" fill="url(#paint0_linear_2255_17483)"/>
<defs>
<linearGradient id="paint0_linear_2255_17483" x1="11.2541" y1="0.000487781" x2="11.521" y2="27.7916" gradientUnits="userSpaceOnUse">
<stop stop-color="#F5ED31" stop-opacity="0"/>
<stop offset="0.5" stop-color="#4CE589"/>
<stop offset="1" stop-color="#031741"/>
</linearGradient>
</defs>
</svg>
