<svg width="60" height="60" viewBox="0 0 60 60" fill="none" xmlns="http://www.w3.org/2000/svg">
<path d="M30 1C46.0163 1 59 13.9837 59 30C59 46.0163 46.0163 59 30 59C13.9837 59 1 46.0163 1 30C1 13.9837 13.9837 1 30 1Z" fill="white"/>
<path d="M30 1C46.0163 1 59 13.9837 59 30C59 46.0163 46.0163 59 30 59C13.9837 59 1 46.0163 1 30C1 13.9837 13.9837 1 30 1Z" stroke="#006554" stroke-width="2"/>
<path d="M41.8333 33.5832V21.2498C41.8333 20.4321 41.5085 19.6478 40.9302 19.0696C40.352 18.4914 39.5677 18.1665 38.75 18.1665H20.25C19.4322 18.1665 18.648 18.4914 18.0697 19.0696C17.4915 19.6478 17.1667 20.4321 17.1667 21.2498V33.5832M41.8333 33.5832H17.1667M41.8333 33.5832L44.2275 38.3716C44.4624 38.8417 44.5733 39.364 44.5496 39.889C44.5259 40.4139 44.3684 40.9241 44.0921 41.3711C43.8157 41.8181 43.4298 42.1871 42.9708 42.4429C42.5118 42.6988 41.995 42.8332 41.4695 42.8332H17.532C17.0064 42.8334 16.4894 42.6993 16.0302 42.4435C15.571 42.1877 15.1848 41.8188 14.9083 41.3718C14.6318 40.9247 14.4742 40.4144 14.4504 39.8893C14.4266 39.3642 14.5375 38.8418 14.7725 38.3716L17.1667 33.5832" stroke="#006554" stroke-width="3.08333" stroke-linecap="round" stroke-linejoin="round"/>
</svg>
