<svg width="64" height="64" viewBox="0 0 64 64" fill="none" xmlns="http://www.w3.org/2000/svg">
<g clip-path="url(#clip0_385_34397)">
<path d="M64 31.9927C64 40.946 60.3249 49.0463 54.3967 54.8499C54.0394 54.9301 53.6821 55.0103 53.3248 55.105C52.5811 55.3019 51.8373 55.5133 51.1008 55.7175C50.3644 55.9289 49.6571 56.3008 48.8914 56.3008H52.8144C47.2143 61.0982 39.9371 64 31.9964 64C16.9097 64 4.26569 53.5594 0.89689 39.517C1.18127 39.4951 1.45836 39.4732 1.74274 39.4441C3.33964 39.291 4.94383 39.1306 6.53344 38.9774C4.85633 39.0576 3.16463 38.9847 1.48752 38.766C2.86567 38.6348 4.09798 38.5327 5.73864 38.4817C3.80631 38.3213 2.42816 38.3213 0.838555 38.1025C5.12613 38.0077 9.15848 38.0807 13.7013 38.0515C10.5366 37.789 7.372 37.3297 4.20736 37.0599C3.95944 37.0381 3.71152 37.0162 3.4636 36.9797C2.42816 36.7829 1.53127 36.3819 0.459382 36.4183C0.40834 36.4183 0.357297 36.4183 0.306255 36.4256C0.102085 34.982 0 33.5019 0 31.9927C0 24.9569 2.28233 18.4461 6.13239 13.1602C7.81679 13.1529 9.5012 13.131 11.1856 13.1091C9.56682 13.0362 7.95534 12.956 6.34385 12.8758C6.73032 12.3436 7.13866 11.8332 7.55429 11.3374C10.5804 11.2354 13.6065 10.7396 16.6399 10.8562C17.6315 10.8854 18.6451 10.9875 19.5857 10.7031C15.7357 10.601 11.871 10.6448 8.02096 10.7979C8.14492 10.6521 8.27618 10.5208 8.40014 10.3823H28.6494C28.8463 10.3823 29.0359 10.3532 29.2182 10.3386C27.4244 9.98132 25.5796 10.0324 23.7566 9.92299C21.9337 9.81362 20.0597 9.5074 18.5138 8.53042C18.1055 8.27523 17.6972 7.96172 17.2305 7.85965C16.7419 7.75758 16.2534 7.88152 15.7721 8.00547C15.2909 8.12941 14.8169 8.25336 14.3284 8.3846C13.6356 8.55958 12.921 8.74915 12.345 9.17931C12.2648 9.23764 12.1846 9.30326 12.0825 9.33242C11.9294 9.37617 11.7689 9.32513 11.6158 9.28868C10.6606 9.05537 9.77099 9.44179 8.91785 9.85008C14.7367 3.76942 22.9181 0 31.9964 0C45.4424 0 56.9416 8.28252 61.6885 20.0283C57.4884 21.1073 53.1644 22.2374 48.9789 23.3311C53.5727 23.229 58.2176 23.3383 62.8406 23.4113C63.5917 26.1381 64 29.0253 64 32V31.9927Z" fill="url(#paint0_linear_385_34397)" fill-opacity="0.9"/>
<path d="M56 53.1064H8V58.736H56V53.1064Z" fill="#111111"/>
<path d="M53.1841 50.2943V44.6647H39.5V34.929C40.9671 34.8405 42.3403 34.7276 43.6249 34.5956L44.2793 38.9351L47.0603 38.5157L46.4187 34.2617C50.7309 33.6701 53.8441 32.8692 55.9999 32.1423L54.0553 26.3747C52.1534 27.0159 49.3883 27.7215 45.5119 28.2482L44.8304 23.7292L42.0494 24.1487L42.7168 28.5746C39.7166 28.8708 36.1709 29.0578 31.9999 29.0578C20.3483 29.0578 13.5749 27.5987 9.94456 26.3747L8 32.1424C12.9507 33.8115 18.9839 34.5929 24.5 34.926V44.6648H10.8159V50.2944H53.1841V50.2943ZM32 35.1445C33.6492 35.1445 35.2098 35.1157 36.6875 35.063V39.0351H27.3125V35.0612C28.9692 35.121 30.5487 35.1445 32 35.1445ZM27.3125 41.8477H36.6875V44.6647H27.3125V41.8477Z" fill="#111111"/>
</g>
<defs>
<linearGradient id="paint0_linear_385_34397" x1="32.0036" y1="56.3008" x2="32.0036" y2="4.48394" gradientUnits="userSpaceOnUse">
<stop stop-color="#A61E22"/>
<stop offset="0.37" stop-color="#BD2A2E"/>
<stop offset="1" stop-color="#EE4347"/>
</linearGradient>
<clipPath id="clip0_385_34397">
<rect width="64" height="64" fill="white"/>
</clipPath>
</defs>
</svg>
